<svg id="Calque_1" data-name="Calque 1" xmlns="http://www.w3.org/2000/svg" viewBox="0 0 390 390"><defs><style>.cls-1{fill:#fff;}</style></defs><path class="cls-1" d="M191,150.79c-17.84,48.15-35.24,95.11-52.65,142.06-1.43,3.88-1.9,9.22-4.71,11.19s-8,.69-12.16.7c-12,0-12,0-15.92-11.08Q77.39,214.45,49.12,135.25c-3.58-10-7.92-19.7-12-29.49S26,90.77,15.18,90.69c-2,0-5.74,1.3-5.94-3.13-.08-1.83.32-2.9,2.41-2.6a10.58,10.58,0,0,0,1.49,0q61,0,121.92,0c1.55,0,3.72-1,3.89,2.23s-1.85,2.92-3.78,3.19c-4.11.58-8.29.9-12.32,1.83-4.37,1-6.63,3.86-6.55,8.67a43.7,43.7,0,0,0,2.28,12.71c11.49,35.46,25.06,70.16,38.51,106.07,2-5.19,3.7-9.46,5.35-13.75q11.66-30.43,23.3-60.88c.62-1.64,1.59-3.16.76-5.17-5-12.26-9.22-24.85-14.9-36.88-3.84-8.13-10-11.54-18.43-12.08-1.65-.11-3.28-.52-4.93-.72-2.35-.29-1.58-2.08-1.71-3.44-.17-1.72,1-1.87,2.22-1.8,3.64.19,7.27.59,10.91.61q57,.21,113.9.31c.84,0,1.67,0,2.5,0,1.25,0,2.25,0,2.26,1.77S277.91,90,276.1,90a70,70,0,0,0-17.63,3c-3.28.92-4.91,3-5.36,6.38-.71,5.42.31,10.63,1.87,15.72,9.13,29.64,20.39,58.55,30.81,87.74,2.23,6.24,4.51,12.46,7.1,19.61,4.43-11.54,8.6-22.3,12.69-33.08,8.35-22,16.84-44,24.26-66.33,1.94-5.84,3.46-11.8,3.41-18-.05-7.57-3.34-11.52-10.84-13.25-5.23-1.21-10.59-.92-15.86-1.56-1.4-.17-3.48.71-3.5-2.17s2-2.12,3.42-2.12q35.47,0,70.95.08c1.26,0,3.12-.86,3.33,1.7s-1.53,2.55-3.17,2.76c-3.14.4-6.27.83-9.41,1.1-13.3,1.17-21.35,8.61-25.87,20.84-7.88,21.3-16.09,42.48-24.1,63.73q-23.43,62.16-46.69,124.38c-1.25,3.36-2.79,4.55-6.32,4.33a142.74,142.74,0,0,0-15.48,0c-3.09.14-4.52-.7-5.63-3.86Q219,229.37,193.54,157.88C192.84,155.88,192.12,153.89,191,150.79Z"/><path class="cls-1" d="M212.12,303.73c-5.46,1.71-8.83.36-10.75-4.87-1.25-3.4-3.28-6.51-4.92-9.77-2.67-5.27-5.15-6.36-10.94-5.33-2.29.4-2,1.82-2,3.25,0,4.65-.14,9.31,0,13.95.1,2.65-.88,3.51-3.45,3.42-2.29-.09-3.7-.38-3.68-3.26q.18-21.44,0-42.87c0-2.74,1.08-3.39,3.55-3.33,5.32.13,10.64-.06,16,.07,7.3.16,12.32,3.73,14.07,9.74,2,7-.17,13.29-6.45,17.19-2,1.22-1.89,2.11-.95,3.78,1.71,3,3.29,6.15,4.91,9.24C209.05,297.83,210.55,300.73,212.12,303.73Zm-20.69-26.79c1.33,0,2.67,0,4,0,5.15-.09,7.77-2.62,7.8-7.51s-2.67-7.51-7.78-7.6c-2.67-.05-5.35.17-8-.06-3-.24-4.43.63-4,3.83a23.89,23.89,0,0,1,0,3.49C183.53,276.94,183.53,276.94,191.43,276.94Z"/><path class="cls-1" d="M88.14,304.26c-5.68,1.86-8.62-.17-9.44-5.5-.6-3.85-2.51-5.86-6.7-5a12.65,12.65,0,0,1-4,0c-7.12-.91-12.77-.15-14.16,8.81C53.17,307,49,304,45.8,304.8c4.85-13.21,9.45-25.79,14.07-38.37,1-2.8,2.25-5.54,3.11-8.39.67-2.26,1.81-3.15,4.25-3.15s3.2,1.07,3.89,3C76.75,273.25,82.41,288.64,88.14,304.26ZM67,264.69c-1.64,4.82-2.84,8.44-4.1,12C59,287.8,59,287.8,70.82,287.43c.34,0,.67,0,1,0,2.35.16,2.88-.75,2.08-3C71.65,278.23,69.55,272,67,264.69Z"/><path class="cls-1" d="M319.39,283c0-5.65-.23-11.32.08-17,.2-3.71-1.28-4.64-4.6-4.28-2,.22-4-.07-6,.07-2.48.18-3.56-.58-3.58-3.31,0-2.91,1.06-3.69,3.81-3.65q14,.2,27.95,0c2.74,0,3.82.79,3.91,3.66.09,3.28-1.71,3.26-4.1,3.31-10.46.18-10.46.22-10.46,10.75,0,9.31-.07,18.62,0,27.94,0,2.62-.5,4-3.53,3.92s-3.65-1.32-3.58-4C319.49,294.67,319.39,288.84,319.39,283Z"/></svg>